<svg width="2280" height="986" viewBox="0 0 2280 986" fill="none" xmlns="http://www.w3.org/2000/svg">
<g clip-path="url(#clip0)">
<path fill-rule="evenodd" clip-rule="evenodd" d="M1112.21 66.2279C1115.93 73.1899 1119.9 80.6418 1119.9 88.2722C1119.9 98.0065 1094.79 92.5128 1068.04 86.6594C1037.53 79.9855 1004.89 72.8439 1004.89 87.2719C1004.89 96.1681 1013.12 102.712 1021.2 109.14C1031.09 117 1040.76 124.687 1034.89 136.29C1022.61 160.596 918.804 148.183 821.087 136.497C801.17 134.115 782.522 131.188 765.2 128.468C713.983 120.428 674.353 114.206 647.75 129.287C624.718 142.344 622.128 158.034 620.008 170.884C617.35 186.986 615.429 198.627 574.942 195.032C570.205 194.611 565.266 194.163 560.154 193.699C469.555 185.474 324.568 172.311 286.7 221.461C267.265 246.686 288.927 272.428 314.278 302.554C341.11 334.44 372.075 371.238 362.818 417.532C352.507 469.103 251.662 482.329 158.907 494.493C64.5431 506.869 -21.4487 518.147 4.77788 567.586C55.2924 662.81 432.107 686.264 508.436 691.015C510.689 691.155 512.681 691.279 514.394 691.388C726.449 704.881 959.948 790.282 1163.83 864.848C1319.06 921.624 1457.12 972.12 1555.47 979.809C1782.98 997.597 1895.84 974.422 1995 943.722C2375.69 825.862 2211.02 622.413 2085.2 466.965C2044.43 416.587 2007.73 371.25 1995 335.502C1942.95 189.316 2067.34 195.812 2167.93 201.064C2236.43 204.641 2293.89 207.642 2277.03 161.439C2235.43 47.3978 1959.49 -9.81798 1772.98 1.3814C1678.71 7.04165 1611.84 37.5299 1552.4 64.6326C1500.84 88.1426 1454.86 109.105 1401.43 109.105C1295.92 109.105 1202.8 79.8595 1168.05 61.2988C1132.79 42.4633 1105.9 28.0961 1105.9 49.2581C1105.9 54.3983 1108.96 60.1249 1112.21 66.2279ZM2077.76 652.297C2038.35 642.069 1964.46 653.253 1987.63 721.741C2018.88 814.157 2117.74 820.798 2147.16 769.426C2176.58 718.054 2117.17 662.525 2077.76 652.297ZM1787.8 230.981C1764.08 217.004 1754.77 205.47 1758.59 191.708C1762.68 176.962 1783.9 188.48 1795.96 195.022L1795.97 195.03C1796.95 195.56 1797.86 196.058 1798.71 196.506C1809.94 202.479 1834.28 226.856 1830.53 239.291C1827.09 250.669 1811.53 244.958 1787.8 230.981ZM1553.78 326.205C1549.19 334.558 1553.46 343.478 1566.72 356.203C1579.99 368.927 1589.22 375.028 1593.2 368.165C1597.55 360.665 1585.48 341.091 1579.1 335.485C1578.62 335.065 1578.1 334.6 1577.55 334.105L1577.54 334.099C1570.72 327.998 1558.7 317.256 1553.78 326.205ZM1793.47 382.464C1784.62 376.237 1781.35 371.426 1783.28 366.159C1785.35 360.517 1793.29 365.702 1797.8 368.646C1798.17 368.887 1798.51 369.112 1798.83 369.315C1803.04 372.011 1811.79 382.329 1809.93 387.078C1808.22 391.423 1802.31 388.692 1793.47 382.464ZM562.629 287.168C554.564 276.421 568.919 262.555 579.883 251.97C595.08 237.299 609.757 233.544 616.98 243.033C623.79 251.981 614.264 268.704 602.337 276.732C590.411 284.761 568.879 295.497 562.629 287.168Z" fill="url(#paint0_linear)"/>
</g>
<defs>
<linearGradient id="paint0_linear" x1="1210.9" y1="93.4147" x2="1210.9" y2="985.738" gradientUnits="userSpaceOnUse">
<stop offset="0.0885417" stop-color="#7861FF"/>
<stop offset="0.6875" stop-color="#00BFE6"/>
<stop offset="1" stop-color="#53F5D4"/>
</linearGradient>
<clipPath id="clip0">
<rect width="2280" height="986" fill="white"/>
</clipPath>
</defs>
</svg>
